<?xml version="1.0" encoding="UTF-8"?>
<!DOCTYPE svg PUBLIC "-//W3C//DTD SVG 1.1//EN" "http://www.w3.org/Graphics/SVG/1.1/DTD/svg11.dtd">
<svg xmlns="http://www.w3.org/2000/svg" version="1.1" width="2300px" height="2000px" style="shape-rendering:geometricPrecision; text-rendering:geometricPrecision; image-rendering:optimizeQuality; fill-rule:evenodd; clip-rule:evenodd" xmlns:xlink="http://www.w3.org/1999/xlink">
<g><path style="opacity:0.995" fill="#61dafb" d="M 659.5,-0.5 C 688.5,-0.5 717.5,-0.5 746.5,-0.5C 800.323,9.38797 851.323,27.5546 899.5,54C 970.277,93.8857 1035.94,140.886 1096.5,195C 1114.32,211.317 1131.98,227.817 1149.5,244.5C 1212.2,182.262 1280.53,127.429 1354.5,80C 1401.85,49.6608 1452.52,26.3274 1506.5,10C 1521.82,5.83482 1537.15,2.33482 1552.5,-0.5C 1581.5,-0.5 1610.5,-0.5 1639.5,-0.5C 1707.08,12.2604 1758.25,48.2604 1793,107.5C 1813.21,143.796 1826.88,182.462 1834,223.5C 1845.09,292.958 1846.43,362.625 1838,432.5C 1830.68,496.608 1819.18,559.941 1803.5,622.5C 1901.09,648.47 1993.76,686.303 2081.5,736C 2127.91,762.819 2169.41,795.986 2206,835.5C 2233.72,866.263 2253.72,901.596 2266,941.5C 2281.21,999.959 2274.21,1055.63 2245,1108.5C 2221.01,1149.5 2190.18,1184.67 2152.5,1214C 2092.31,1259.95 2026.65,1296.95 1955.5,1325C 1905.75,1344.86 1855.08,1362.03 1803.5,1376.5C 1823.58,1455.33 1836.42,1535.33 1842,1616.5C 1846.93,1683.44 1841.27,1749.44 1825,1814.5C 1811.53,1865.3 1786.36,1909.13 1749.5,1946C 1717.97,1974.27 1681.3,1992.1 1639.5,1999.5C 1610.83,1999.5 1582.17,1999.5 1553.5,1999.5C 1500.04,1989.95 1449.37,1972.12 1401.5,1946C 1329.88,1906.04 1263.55,1858.71 1202.5,1804C 1184.68,1787.68 1167.02,1771.18 1149.5,1754.5C 1086.8,1816.74 1018.47,1871.57 944.5,1919C 897.11,1949.25 846.444,1972.58 792.5,1989C 776.825,1993.1 761.158,1996.6 745.5,1999.5C 716.833,1999.5 688.167,1999.5 659.5,1999.5C 589.059,1985.7 536.559,1947.37 502,1884.5C 481.411,1844.49 468.078,1802.15 462,1757.5C 453.679,1693.89 453.345,1630.22 461,1566.5C 468.322,1502.39 479.822,1439.06 495.5,1376.5C 397.906,1350.53 305.24,1312.7 217.5,1263C 180.486,1240.99 146.153,1215.32 114.5,1186C 83.8082,1156.45 59.6416,1122.28 42,1083.5C 16.4626,1017.33 20.4626,952.998 54,890.5C 76.723,851.296 105.89,817.462 141.5,789C 189.5,751.307 241.5,719.64 297.5,694C 361.645,665.118 427.645,641.284 495.5,622.5C 475.527,543.993 462.693,464.326 457,383.5C 452.388,320.12 457.055,257.453 471,195.5C 482.386,147.059 504.053,104.059 536,66.5C 569.648,30.4238 610.815,8.09048 659.5,-0.5 Z M 685.5,95.5 C 713.779,94.1828 741.446,97.6828 768.5,106C 803.537,116.853 836.871,131.52 868.5,150C 945.694,196.645 1016.36,251.978 1080.5,316C 1012.24,390.57 948.905,468.903 890.5,551C 790.543,560.437 691.543,575.937 593.5,597.5C 592.353,597.182 591.519,596.516 591,595.5C 571.419,520.012 559.419,443.345 555,365.5C 551.79,312.348 556.79,260.014 570,208.5C 577.423,180.983 590.09,156.316 608,134.5C 628.955,111.772 654.789,98.7724 685.5,95.5 Z M 1581.5,95.5 C 1636.2,90.192 1678.04,110.525 1707,156.5C 1723.66,187.152 1734.33,219.819 1739,254.5C 1744.6,297.358 1745.93,340.358 1743,383.5C 1737.54,455.901 1725.71,527.235 1707.5,597.5C 1608.79,575.993 1509.12,560.493 1408.5,551C 1350.1,468.903 1286.76,390.57 1218.5,316C 1276.71,258.28 1340.05,207.28 1408.5,163C 1448.83,137.671 1491.83,118.004 1537.5,104C 1552.12,100.178 1566.79,97.3447 1581.5,95.5 Z M 1148.5,387.5 C 1149.24,387.369 1149.91,387.536 1150.5,388C 1195.79,437.303 1238.46,488.636 1278.5,542C 1235.52,540.819 1192.52,539.986 1149.5,539.5C 1106.48,539.986 1063.48,540.819 1020.5,542C 1060.67,488.533 1103.34,437.033 1148.5,387.5 Z M 1089.5,638.5 C 1177.61,637.127 1265.61,639.627 1353.5,646C 1430.12,758.298 1498.12,876.131 1557.5,999.5C 1498.12,1122.87 1430.12,1240.7 1353.5,1353C 1217.5,1363 1081.5,1363 945.5,1353C 868.879,1240.7 800.879,1122.87 741.5,999.5C 800.729,876.311 868.562,758.645 945,646.5C 993.199,642.582 1041.37,639.916 1089.5,638.5 Z M 815.5,658.5 C 816.552,658.351 817.552,658.517 818.5,659C 772.139,731.43 728.972,805.93 689,882.5C 661.987,820.632 638.82,757.299 619.5,692.5C 684.545,678.771 749.878,667.438 815.5,658.5 Z M 1480.5,659.5 C 1547.51,667.058 1614.18,678.225 1680.5,693C 1660.14,757.409 1636.64,820.575 1610,882.5C 1570.34,805.811 1527.17,731.477 1480.5,659.5 Z M 520.5,717.5 C 521.496,717.414 522.329,717.748 523,718.5C 553.574,814.398 589.741,908.065 631.5,999.5C 589.782,1091.59 553.115,1185.59 521.5,1281.5C 440.902,1259.14 363.568,1228.64 289.5,1190C 243.565,1166.08 202.731,1135.25 167,1097.5C 151.769,1080.25 139.769,1060.91 131,1039.5C 119.254,1004.87 122.254,971.54 140,939.5C 157.838,909.989 180.338,884.489 207.5,863C 253.456,828.17 303.123,799.17 356.5,776C 410.068,753.201 464.734,733.701 520.5,717.5 Z M 1776.5,717.5 C 1858.37,739.441 1936.71,770.274 2011.5,810C 2056.49,833.975 2096.66,864.475 2132,901.5C 2151.93,923.354 2165.6,948.688 2173,977.5C 2178.06,1006.47 2173.39,1033.8 2159,1059.5C 2144.23,1083.96 2126.06,1105.79 2104.5,1125C 2055.42,1165.23 2001.42,1197.9 1942.5,1223C 1888.33,1246.61 1832.83,1265.78 1776,1280.5C 1745.43,1184.6 1709.26,1090.94 1667.5,999.5C 1709.4,907.691 1745.73,813.691 1776.5,717.5 Z M 688.5,1116.5 C 728.777,1192.9 772.11,1267.4 818.5,1340C 751.705,1331.87 685.372,1320.7 619.5,1306.5C 638.943,1241.83 661.943,1178.5 688.5,1116.5 Z M 1609.5,1116.5 C 1636.94,1178.15 1660.28,1241.48 1679.5,1306.5C 1613.63,1320.7 1547.3,1331.87 1480.5,1340C 1526.92,1267.68 1569.92,1193.18 1609.5,1116.5 Z M 591.5,1401.5 C 690.239,1422.85 789.905,1438.35 890.5,1448C 948.905,1530.1 1012.24,1608.43 1080.5,1683C 1018.2,1745 949.871,1799 875.5,1845C 839.691,1866.57 801.691,1883.24 761.5,1895C 657.358,1922.35 592.524,1883.85 567,1779.5C 555.078,1725.08 551.411,1670.08 556,1614.5C 561.566,1542.44 573.399,1471.44 591.5,1401.5 Z M 1703.5,1401.5 C 1704.83,1401.5 1706.17,1401.5 1707.5,1401.5C 1727.46,1477.94 1739.63,1555.61 1744,1634.5C 1747.11,1687.31 1742.11,1739.31 1729,1790.5C 1720.25,1822.52 1704.42,1850.35 1681.5,1874C 1652.42,1897.61 1619.09,1907.28 1581.5,1903C 1539.71,1897.51 1500.04,1885.18 1462.5,1866C 1415.12,1841.32 1370.45,1812.66 1328.5,1780C 1290.35,1749.53 1253.68,1717.19 1218.5,1683C 1286.76,1608.43 1350.1,1530.1 1408.5,1448C 1488.36,1440.36 1567.69,1429.02 1646.5,1414C 1665.73,1410.27 1684.73,1406.11 1703.5,1401.5 Z M 1020.5,1457.5 C 1022.47,1456.84 1024.64,1456.5 1027,1456.5C 1110.84,1460.28 1194.67,1460.45 1278.5,1457C 1238.47,1510.85 1195.47,1562.35 1149.5,1611.5C 1103.64,1562.36 1060.64,1511.02 1020.5,1457.5 Z"/></g>
<g><path style="opacity:0.997" fill="#61dafb" d="M 1137.5,798.5 C 1212.53,797.099 1272.03,826.432 1316,886.5C 1352.47,943.928 1359.8,1004.93 1338,1069.5C 1305.34,1148.11 1246.51,1191.61 1161.5,1200C 1086.45,1201.89 1026.95,1172.72 983,1112.5C 946.53,1055.07 939.197,994.072 961,929.5C 993.88,850.967 1052.71,807.3 1137.5,798.5 Z"/></g>
</svg>
