<?xml version="1.0" encoding="UTF-8"?>
<!DOCTYPE svg PUBLIC "-//W3C//DTD SVG 1.1//EN" "http://www.w3.org/Graphics/SVG/1.1/DTD/svg11.dtd">
<svg xmlns="http://www.w3.org/2000/svg" version="1.1" width="1200px" height="1200px" style="shape-rendering:geometricPrecision; text-rendering:geometricPrecision; image-rendering:optimizeQuality; fill-rule:evenodd; clip-rule:evenodd" xmlns:xlink="http://www.w3.org/1999/xlink">
<g><path style="opacity:1" fill="#3178c6" d="M 101.5,-0.5 C 433.5,-0.5 765.5,-0.5 1097.5,-0.5C 1154.5,10.5 1188.5,44.5 1199.5,101.5C 1199.5,433.5 1199.5,765.5 1199.5,1097.5C 1188.5,1154.5 1154.5,1188.5 1097.5,1199.5C 765.5,1199.5 433.5,1199.5 101.5,1199.5C 44.5,1188.5 10.5,1154.5 -0.5,1097.5C -0.5,765.5 -0.5,433.5 -0.5,101.5C 10.5,44.5 44.5,10.5 101.5,-0.5 Z"/></g>
<g><path style="opacity:1" fill="#fefefe" d="M 742.5,1071.5 C 742.168,1032.66 742.501,993.996 743.5,955.5C 797.094,998.929 858.094,1015.1 926.5,1004C 942.972,1000.68 956.805,992.851 968,980.5C 979.288,962.818 979.288,945.152 968,927.5C 956.86,913.689 943.36,902.856 927.5,895C 903.971,883.235 879.971,872.568 855.5,863C 824.127,849.737 796.627,830.904 773,806.5C 746.455,773.192 735.789,735.192 741,692.5C 747.806,646.368 771.306,611.535 811.5,588C 835.02,575.074 860.02,566.407 886.5,562C 940.548,554.413 994.214,556.413 1047.5,568C 1057.55,570.571 1067.38,573.738 1077,577.5C 1077.67,613.833 1077.67,650.167 1077,686.5C 1043.93,665.517 1007.76,653.683 968.5,651C 945.213,648.613 922.546,651.28 900.5,659C 884.038,665.13 872.538,676.296 866,692.5C 862.685,708.871 866.685,723.204 878,735.5C 890.858,747.681 905.358,757.514 921.5,765C 945.5,775.667 969.5,786.333 993.5,797C 1021.66,809.833 1046.49,827.333 1068,849.5C 1091.57,876.882 1102.41,908.716 1100.5,945C 1100.22,1012.25 1068.88,1058.25 1006.5,1083C 979.945,1092.27 952.612,1097.94 924.5,1100C 870.235,1104.54 817.235,1098.54 765.5,1082C 757.504,1079 749.838,1075.5 742.5,1071.5 Z"/></g>
<g><path style="opacity:1" fill="#fefefe" d="M 276.5,569.5 C 416.167,569.5 555.833,569.5 695.5,569.5C 695.5,601.5 695.5,633.5 695.5,665.5C 645.5,665.5 595.5,665.5 545.5,665.5C 544.5,807.999 544.167,950.666 544.5,1093.5C 505.167,1093.5 465.833,1093.5 426.5,1093.5C 426.833,950.666 426.5,807.999 425.5,665.5C 376.003,664.501 326.336,664.168 276.5,664.5C 276.5,632.833 276.5,601.167 276.5,569.5 Z"/></g>
<g><path style="opacity:1" fill="#c1d5ee" d="M 276.5,569.5 C 276.5,601.167 276.5,632.833 276.5,664.5C 326.336,664.168 376.003,664.501 425.5,665.5C 375.5,665.5 325.5,665.5 275.5,665.5C 275.168,633.329 275.502,601.329 276.5,569.5 Z"/></g>
<g><path style="opacity:1" fill="#abc8e7" d="M 425.5,665.5 C 426.5,807.999 426.833,950.666 426.5,1093.5C 465.833,1093.5 505.167,1093.5 544.5,1093.5C 544.167,950.666 544.5,807.999 545.5,665.5C 545.5,808.5 545.5,951.5 545.5,1094.5C 505.5,1094.5 465.5,1094.5 425.5,1094.5C 425.5,951.5 425.5,808.5 425.5,665.5 Z"/></g>
<g><path style="opacity:1" fill="#5590d0" d="M 743.5,955.5 C 742.501,993.996 742.168,1032.66 742.5,1071.5C 741.169,1032.66 741.169,993.665 742.5,954.5C 743.107,954.624 743.44,954.957 743.5,955.5 Z"/></g>
</svg>
